<svg width="32" height="32" viewBox="0 0 32 32" fill="none" xmlns="http://www.w3.org/2000/svg">
<path fill-rule="evenodd" clip-rule="evenodd" d="M1.16164 1.16191C1.64921 0.674489 2.31041 0.400669 2.99984 0.400669C3.68926 0.400669 4.35046 0.674489 4.83803 1.16191L15.9998 12.3237L27.1616 1.16191C27.4015 0.913587 27.6884 0.715513 28.0056 0.57925C28.3228 0.442987 28.664 0.371262 29.0092 0.368262C29.3544 0.365262 29.6968 0.431046 30.0163 0.561777C30.3358 0.692507 30.6261 0.885565 30.8703 1.12969C31.1144 1.37381 31.3074 1.6641 31.4382 1.98363C31.5689 2.30316 31.6347 2.64553 31.6317 2.99076C31.6287 3.33598 31.557 3.67715 31.4207 3.99436C31.2844 4.31158 31.0864 4.59847 30.838 4.83831L19.6762 16.0001L30.838 27.1619C31.3116 27.6523 31.5737 28.309 31.5678 28.9908C31.5619 29.6725 31.2884 30.3246 30.8064 30.8066C30.3243 31.2887 29.6722 31.5621 28.9905 31.5681C28.3088 31.574 27.652 31.3119 27.1616 30.8383L15.9998 19.6765L4.83803 30.8383C4.34767 31.3119 3.6909 31.574 3.00919 31.5681C2.32748 31.5621 1.67537 31.2887 1.19331 30.8066C0.711246 30.3246 0.437806 29.6725 0.431882 28.9908C0.425958 28.309 0.688025 27.6523 1.16164 27.1619L12.3234 16.0001L1.16164 4.83831C0.674211 4.35074 0.400391 3.68954 0.400391 3.00011C0.400391 2.31069 0.674211 1.64949 1.16164 1.16191Z" fill="#003060"/>
</svg>
