<svg width="240" height="240" viewBox="0 0 240 240" fill="none" xmlns="http://www.w3.org/2000/svg">
<path d="M13.9686 231.131C18.2249 235.744 35.7561 227.7 49.5937 221.25C59.9624 216.431 101.456 199.406 122.081 190.575C127.65 188.194 135.75 185.081 141.581 177.412C146.756 170.587 160.481 141.6 132.844 112.237C104.794 82.4248 75.8999 90.656 65.0999 98.306C58.7437 102.806 53.5686 112.95 51.2436 118.106C41.4186 139.894 27.4124 179.812 21.7124 195.506C17.5311 207.075 9.7499 226.556 13.9686 231.131V231.131Z" fill="#5D8EF0"/>
<path d="M48.4688 124.669C48.7313 127.931 49.3876 133.238 51.6376 143.456C53.1751 150.469 55.6876 157.819 57.7313 162.675C63.8626 177.281 72.4688 183.169 81.1876 187.894C96.0001 195.919 106.069 197.419 106.069 197.419L93.9938 202.35C93.9938 202.35 86.6813 200.831 76.7063 195.919C67.2001 191.231 57.3001 183.3 50.0626 167.775C46.9313 161.044 45.1126 154.519 44.0626 149.344C42.7688 142.931 42.5626 139.294 42.5626 139.294L48.4688 124.669V124.669ZM33.6376 162.694C33.6376 162.694 35.1376 174.863 45.1876 190.219C56.9626 208.181 73.4063 211.125 73.4063 211.125L62.4751 215.625C62.4751 215.625 50.2688 211.894 38.6626 196.05C31.4251 186.169 29.4001 174.356 29.4001 174.356L33.6376 162.694V162.694ZM23.2313 191.531C23.2313 191.531 25.9688 202.031 31.9688 209.869C39.1126 219.225 48.2063 221.944 48.2063 221.944L39.8251 225.656C39.8251 225.656 33.4688 224.325 26.5126 215.513C21.2251 208.819 19.7251 201.131 19.7251 201.131L23.2313 191.531V191.531Z" fill="#00388C"/>
<path opacity="0.44" d="M18.6749 218.194C18.2999 217.35 18.2999 216.394 18.6937 215.569L66.4499 116.531L74.3062 146.062L24.0562 218.644C22.7062 220.669 19.6687 220.406 18.6749 218.194V218.194Z" fill="#FFFDE7"/>
<path d="M78.0936 155.981C100.406 182.081 125.812 178.819 134.269 172.219C142.744 165.6 149.437 142.856 127.219 117.187C103.931 90.2998 77.5686 97.9686 71.4749 103.781C65.3811 109.594 57.6186 132.037 78.0936 155.981V155.981Z" fill="#00388C"/>
<path d="M154.725 166.725C146.588 159.9 142.256 161.119 136.444 163.537C128.944 166.65 117.15 168.956 101.138 163.537L105.956 151.931C115.463 155.137 122.344 153.581 128.288 150.075C135.938 145.575 146.4 139.406 162.675 153.075C169.463 158.775 176.419 162.562 181.519 160.837C185.231 159.6 187.2 154.069 188.194 149.662C188.288 149.269 188.438 148.144 188.55 147.15C189.45 140.269 190.95 125.419 202.013 117.825C213.844 109.706 226.275 109.706 226.275 109.706L228.525 132.056C222.806 131.212 218.831 132.375 215.475 134.231C202.838 141.262 213.844 168.262 194.175 177.337C175.256 186.131 159.788 170.962 154.725 166.725V166.725Z" fill="#1560BD"/>
<path d="M85.1249 138.225L76.9874 130.931C91.9311 114.244 87.9936 101.981 85.1249 93.0563C84.5436 91.2563 83.9999 89.55 83.6436 87.9187C82.3686 82.1437 82.1061 77.1188 82.4999 72.7313C76.7624 65.5875 74.2311 58.1062 74.0624 57.6C70.5749 47.0437 73.1999 36.75 79.2186 27.0937C91.3874 7.5 113.419 7.5 113.419 7.5L120.769 27.1687C115.181 26.9437 96.8624 27.225 91.2374 36.0938C84.1311 47.2688 88.7999 54.1687 89.1374 54.9562C90.5061 53.175 91.8936 51.75 93.1311 50.6438C102.112 42.675 109.912 41.5312 114.881 41.9812C120.469 42.4875 125.531 45.3 129.15 49.9125C133.106 54.975 134.737 61.5563 133.481 67.5375C132.262 73.3688 128.381 78.3 122.55 81.4313C112.369 86.9063 103.894 86.1562 98.2124 84.2625C98.2499 84.3937 98.2686 84.5437 98.3061 84.675C98.5124 85.6125 98.9249 86.925 99.4124 88.4437C102.731 98.7187 108.9 115.031 85.1249 138.225V138.225ZM98.9061 67.8562C99.9936 68.6437 101.137 69.3 102.319 69.7687C106.256 71.3437 110.55 70.8187 115.425 68.1937C118.294 66.6562 118.631 65.0063 118.744 64.4625C119.081 62.8313 118.519 60.75 117.3 59.1937C116.231 57.825 114.994 57.1125 113.512 56.9625C110.7 56.7187 106.894 58.5 103.087 61.8937C101.269 63.525 99.8811 65.5312 98.9061 67.8562Z" fill="#1560BD"/>
<path d="M117.694 141.281L106.05 140.962C106.05 140.962 111.581 109.725 129.487 104.475C132.844 103.5 136.519 102.506 140.212 101.962C142.406 101.625 145.875 101.119 147.581 100.481C147.975 97.5373 146.737 93.7873 145.35 89.5311C144.262 86.2311 143.137 82.8373 142.537 79.1248C141.375 71.8873 143.306 65.4936 147.975 61.0873C153.675 55.7436 162.881 54.0373 173.269 56.3998C179.194 57.7498 183.562 60.6561 187.406 63.2061C192.9 66.8623 196.106 68.7186 202.819 64.1998C210.937 58.7248 200.325 37.2936 194.681 24.9186L215.737 16.1436C218.569 22.3311 232.237 54.1686 223.219 72.3373C220.181 78.4498 214.95 82.4998 208.087 84.0186C193.162 87.3561 184.425 81.5436 178.05 77.3061C175.031 75.2998 172.387 73.7248 169.519 72.8998C149.587 67.2186 177.412 96.5436 164.381 109.725C156.562 117.619 137.456 119.7 136.219 120C123.919 122.962 117.694 141.281 117.694 141.281V141.281Z" fill="#1560BD"/>
<path d="M82.4811 72.7314C82.1248 76.8564 81.9561 79.3127 83.0248 84.6752C88.1811 88.4627 99.4123 88.4627 99.4123 88.4627C98.9248 86.9439 98.4936 85.6314 98.3061 84.6939C98.2686 84.5627 98.2498 84.4127 98.2123 84.2814C86.7936 78.5814 82.4811 72.7314 82.4811 72.7314V72.7314Z" fill="#00388C"/>
<path d="M59.1189 91.2004L39.7314 81.6941L49.3877 67.7441L64.5939 77.8129L59.1189 91.2004Z" fill="#00388C"/>
<path d="M30.5439 64.8748C20.6439 63.5436 10.5564 55.1436 9.4502 54.1873L19.1814 42.7686C22.1252 45.2623 28.3689 49.4436 32.5502 50.0061L30.5439 64.8748Z" fill="#1560BD"/>
<path d="M48.0186 39.8811L33.7686 35.2123C35.3998 30.2248 35.8311 24.8436 34.9873 19.6498L49.7998 17.2686C51.0186 24.8061 50.3998 32.6248 48.0186 39.8811V39.8811Z" fill="#5D8EF0"/>
<path d="M137.012 28.7346L151.665 25.5283L155.897 44.8708L141.244 48.0771L137.012 28.7346Z" fill="#5D8EF0"/>
<path d="M173.362 33.3184L163.05 22.4246C168.45 17.3059 169.687 10.6121 169.687 10.5371L184.5 12.9559C184.312 14.1371 182.419 24.7496 173.362 33.3184V33.3184Z" fill="#00388C"/>
<path d="M179.089 91.0872L192.189 86.9922L196.663 101.31L183.563 105.405L179.089 91.0872Z" fill="#5D8EF0"/>
<path d="M182.906 211.931L168 210.168C168.637 204.862 164.681 198.356 163.594 196.912L175.594 187.912C176.494 189.093 184.313 199.912 182.906 211.931V211.931Z" fill="#5D8EF0"/>
<path d="M225.694 192.919C220.087 192.075 214.35 191.738 208.687 191.944L208.181 176.944C214.762 176.719 221.419 177.094 227.925 178.088L225.694 192.919V192.919Z" fill="#00388C"/>
<path d="M205.526 213.566L216.064 202.892L230.567 217.213L220.029 227.885L205.526 213.566Z" fill="#1560BD"/>
<path d="M174.568 118.751L185.406 131.143L173.014 141.98L162.176 129.588L174.568 118.751Z" fill="#00388C"/>
</svg>
