<svg width="40" height="40" viewBox="0 0 40 40" fill="none" xmlns="http://www.w3.org/2000/svg">
<g clip-path="url(#clip0_2475_18255)">
<path d="M23.7501 33.75H33.7501C34.9857 33.75 36.0357 33.4713 36.9076 32.9856L23.7501 25.1369V33.75ZM39.7876 28.8812C39.9301 28.2456 40.0026 27.5725 40.0026 26.8744V23.7494H31.1838L39.7851 28.8812H39.7876ZM0.218824 11.0994C0.0707015 11.7643 -0.00267023 12.4438 7.42241e-05 13.125V16.25H8.85257L0.218824 11.0994ZM16.2501 6.25H6.25007C5.0232 6.25 3.98007 6.525 3.11195 7.00375L16.2501 14.8413V6.25ZM3.15195 33.0163C4.01195 33.4813 5.04132 33.75 6.25007 33.75H16.2501V25.2025L3.15195 33.0163ZM7.42241e-05 23.75V26.875C7.42241e-05 27.5944 0.0763242 28.2875 0.226949 28.9394L8.92632 23.75H7.42241e-05ZM36.9469 7.03438C36.0682 6.53563 35.0038 6.25 33.7501 6.25H23.7501V14.9069L36.9469 7.03438ZM40.0001 16.25V13.125C40.0001 12.4412 39.9294 11.7819 39.7926 11.1581L31.2576 16.25H40.0001Z" fill="#2E3192"/>
<path d="M31.2575 16.25L39.7925 11.1581C39.4012 9.36813 38.4487 7.88625 36.9469 7.03438L23.75 14.9069V6.25H22.5V17.5H40V16.25H31.2575ZM0 22.5V23.75H8.92625L0.226875 28.9394C0.64 30.7238 1.62125 32.1887 3.15188 33.0163L16.25 25.2025V33.75H17.5V22.5H0ZM40 22.5H22.5V33.75H23.75V25.1369L36.9075 32.9862C38.4206 32.1437 39.385 30.67 39.785 28.8825L31.1838 23.75H40V22.5ZM16.25 6.25V14.8413L3.11188 7.00375C1.59312 7.84125 0.6225 9.3125 0.218125 11.0994L8.8525 16.25H0V17.5H17.5V6.25H16.25Z" fill="#E6E7E8"/>
<path d="M22.5 17.5V6.25H17.5V17.5H0V22.5H17.5V33.75H22.5V22.5H40V17.5H22.5Z" fill="#BE1E2D"/>
<path d="M13.7113 16.2498L1.18 8.76914C0.910625 9.16914 0.694375 9.60914 0.515625 10.0779L10.8575 16.2498H13.7094H13.7113ZM39.4313 30.056L28.9231 23.7498H26.0131L38.7088 31.3866C39.0032 30.9752 39.2458 30.5292 39.4313 30.0585V30.056ZM37.9494 7.74414L23.7306 16.2498L26.6175 16.2516L38.8869 8.90602C38.6131 8.40789 38.3244 8.08664 37.9494 7.74414ZM1.13313 31.1716C1.41427 31.5998 1.75261 31.9876 2.13875 32.3241L16.2894 23.7498H13.4375L1.13313 31.1716Z" fill="#BE1E2D"/>
</g>
<defs>
<clipPath id="clip0_2475_18255">
<rect width="40" height="40" fill="white"/>
</clipPath>
</defs>
</svg>
